<?xml version="1.0" encoding="UTF-8"?>
<svg width="259px" height="71px" viewBox="0 0 259 71" version="1.1" xmlns="http://www.w3.org/2000/svg" xmlns:xlink="http://www.w3.org/1999/xlink">
    <!-- Generator: Sketch 49 (51002) - http://www.bohemiancoding.com/sketch -->
    <title>Woman’s Collection</title>
    <desc>Created with Sketch.</desc>
    <defs></defs>
    <g id="Suite" stroke="none" stroke-width="1" fill="none" fill-rule="evenodd">
        <g id="Womens-Collection-Mobile" transform="translate(-20.000000, -117.000000)" fill="#FFFFFF">
            <g id="Header-3" transform="translate(4.000000, 4.000000)">
                <path d="M23.215,141 L16.777,114.545 L23.585,114.545 L26.915,131.084 C27.248,132.712 27.248,133.859 27.248,133.859 L27.322,133.859 C27.322,133.859 27.359,132.712 27.766,131.084 L31.836,114.545 L37.053,114.545 L41.012,131.084 C41.419,132.712 41.456,133.859 41.456,133.859 L41.53,133.859 C41.53,133.859 41.53,132.712 41.863,131.084 L45.489,114.545 L52.186,114.545 L45.489,141 L38.274,141 L34.944,127.643 C34.537,125.941 34.426,124.535 34.426,124.535 L34.352,124.535 C34.352,124.535 34.241,125.941 33.834,127.643 L30.504,141 L23.215,141 Z M56.4299999,127.606 C56.4299999,120.021 62.2759999,114.101 70.2679999,114.101 C78.2599999,114.101 84.1059999,120.021 84.1059999,127.606 C84.1059999,135.376 78.2599999,141.444 70.2679999,141.444 C62.2759999,141.444 56.4299999,135.376 56.4299999,127.606 Z M63.1269999,127.606 C63.1269999,132.12 66.3089999,135.524 70.2679999,135.524 C74.2269999,135.524 77.4089999,132.12 77.4089999,127.606 C77.4089999,123.277 74.2269999,120.021 70.2679999,120.021 C66.3089999,120.021 63.1269999,123.277 63.1269999,127.606 Z M90.0149999,141 L92.1979999,114.545 L99.2279999,114.545 L103.076,125.719 C103.668,127.421 104.408,130.085 104.408,130.085 L104.482,130.085 C104.482,130.085 105.222,127.421 105.814,125.719 L109.662,114.545 L116.692,114.545 L118.838,141 L112.363,141 L111.549,129.086 C111.401,127.088 111.549,124.646 111.549,124.646 L111.475,124.646 C111.475,124.646 110.587,127.421 109.995,129.086 L107.22,136.745 L101.67,136.745 L98.8949999,129.086 C98.3029999,127.421 97.4149999,124.646 97.4149999,124.646 L97.3409999,124.646 C97.3409999,124.646 97.4889999,127.088 97.3409999,129.086 L96.5269999,141 L90.0149999,141 Z M141.434,141 L139.806,135.45 L131.555,135.45 L129.964,141 L123.304,141 L132.295,114.545 L139.103,114.545 L148.094,141 L141.434,141 Z M135.736,120.576 L135.662,120.576 C135.662,120.576 135.07,123.462 134.589,125.127 L133.072,130.27 L138.289,130.27 L136.809,125.127 C136.328,123.462 135.736,120.576 135.736,120.576 Z M153.374,141 L153.374,114.545 L159.923,114.545 L167.249,126.903 C168.285,128.642 169.469,131.417 169.469,131.417 L169.543,131.417 C169.543,131.417 169.247,128.568 169.247,126.903 L169.247,114.545 L175.722,114.545 L175.722,141 L169.21,141 L161.847,128.679 C160.811,126.94 159.627,124.165 159.627,124.165 L159.553,124.165 C159.553,124.165 159.849,127.014 159.849,128.679 L159.849,141 L153.374,141 Z M182.445,123.425 L184.443,113.99 L190.067,113.99 L186.774,123.425 L182.445,123.425 Z M193.941,137.67 L197.345,132.749 C197.345,132.749 200.342,135.487 203.672,135.487 C205.004,135.487 206.447,134.969 206.447,133.378 C206.447,130.233 194.533,130.344 194.533,122.204 C194.533,117.32 198.64,114.101 203.894,114.101 C209.592,114.101 212.404,117.098 212.404,117.098 L209.666,122.389 C209.666,122.389 207.002,120.058 203.82,120.058 C202.488,120.058 201.008,120.65 201.008,122.13 C201.008,125.46 212.922,124.868 212.922,133.23 C212.922,137.633 209.555,141.444 203.598,141.444 C197.382,141.444 193.941,137.67 193.941,137.67 Z M17.295,169.717 C17.295,162.021 23.215,156.101 31.17,156.101 C37.719,156.101 41.086,159.838 41.086,159.838 L38.089,164.722 C38.089,164.722 35.129,162.021 31.466,162.021 C26.397,162.021 23.992,165.758 23.992,169.569 C23.992,173.491 26.582,177.524 31.466,177.524 C35.462,177.524 38.496,174.268 38.496,174.268 L41.826,179.004 C41.826,179.004 38.089,183.444 31.17,183.444 C22.882,183.444 17.295,177.561 17.295,169.717 Z M46.1069999,169.606 C46.1069999,162.021 51.9529999,156.101 59.9449999,156.101 C67.9369999,156.101 73.7829999,162.021 73.7829999,169.606 C73.7829999,177.376 67.9369999,183.444 59.9449999,183.444 C51.9529999,183.444 46.1069999,177.376 46.1069999,169.606 Z M52.8039999,169.606 C52.8039999,174.12 55.9859999,177.524 59.9449999,177.524 C63.9039999,177.524 67.0859999,174.12 67.0859999,169.606 C67.0859999,165.277 63.9039999,162.021 59.9449999,162.021 C55.9859999,162.021 52.8039999,165.277 52.8039999,169.606 Z M80.5059999,183 L80.5059999,156.545 L86.9809999,156.545 L86.9809999,177.45 L97.7849999,177.45 L97.7849999,183 L80.5059999,183 Z M103.657,183 L103.657,156.545 L110.132,156.545 L110.132,177.45 L120.936,177.45 L120.936,183 L103.657,183 Z M126.808,183 L126.808,156.545 L143.384,156.545 L143.384,162.095 L133.283,162.095 L133.283,166.905 L141.349,166.905 L141.349,172.455 L133.283,172.455 L133.283,177.45 L143.902,177.45 L143.902,183 L126.808,183 Z M149.071,169.717 C149.071,162.021 154.991,156.101 162.946,156.101 C169.495,156.101 172.862,159.838 172.862,159.838 L169.865,164.722 C169.865,164.722 166.905,162.021 163.242,162.021 C158.173,162.021 155.768,165.758 155.768,169.569 C155.768,173.491 158.358,177.524 163.242,177.524 C167.238,177.524 170.272,174.268 170.272,174.268 L173.602,179.004 C173.602,179.004 169.865,183.444 162.946,183.444 C154.658,183.444 149.071,177.561 149.071,169.717 Z M184.913,183 L184.913,162.095 L176.884,162.095 L176.884,156.545 L199.417,156.545 L199.417,162.095 L191.388,162.095 L191.388,183 L184.913,183 Z M204.993,183 L204.993,156.545 L211.468,156.545 L211.468,183 L204.993,183 Z M218.190999,169.606 C218.190999,162.021 224.036999,156.101 232.028999,156.101 C240.020999,156.101 245.866999,162.021 245.866999,169.606 C245.866999,177.376 240.020999,183.444 232.028999,183.444 C224.036999,183.444 218.190999,177.376 218.190999,169.606 Z M224.887999,169.606 C224.887999,174.12 228.069999,177.524 232.028999,177.524 C235.987999,177.524 239.169999,174.12 239.169999,169.606 C239.169999,165.277 235.987999,162.021 232.028999,162.021 C228.069999,162.021 224.887999,165.277 224.887999,169.606 Z M252.589999,183 L252.589999,156.545 L259.138999,156.545 L266.464999,168.903 C267.500999,170.642 268.684999,173.417 268.684999,173.417 L268.758999,173.417 C268.758999,173.417 268.462999,170.568 268.462999,168.903 L268.462999,156.545 L274.937999,156.545 L274.937999,183 L268.425999,183 L261.062999,170.679 C260.026999,168.94 258.842999,166.165 258.842999,166.165 L258.768999,166.165 C258.768999,166.165 259.064999,169.014 259.064999,170.679 L259.064999,183 L252.589999,183 Z" id="Woman’s-Collection"></path>
            </g>
        </g>
    </g>
</svg>