<?xml version="1.0" encoding="UTF-8"?>
<svg width="315px" height="88px" viewBox="0 0 315 88" version="1.1" xmlns="http://www.w3.org/2000/svg" xmlns:xlink="http://www.w3.org/1999/xlink">
    <!-- Generator: Sketch 49 (51002) - http://www.bohemiancoding.com/sketch -->
    <title>Woman’s Collection</title>
    <desc>Created with Sketch.</desc>
    <defs></defs>
    <g id="Suite" stroke="none" stroke-width="1" fill="none" fill-rule="evenodd">
        <g id="Womens-Collection-Desktop-3" transform="translate(-95.000000, -142.000000)" fill="#FFFFFF">
            <g id="HERO" transform="translate(0.000000, -1.000000)">
                <g id="Primary-Nav" transform="translate(0.000000, 104.000000)">
                    <path d="M103.775,72 L95.945,39.825 L104.225,39.825 L108.275,59.94 C108.68,61.92 108.68,63.315 108.68,63.315 L108.77,63.315 C108.77,63.315 108.815,61.92 109.31,59.94 L114.26,39.825 L120.605,39.825 L125.42,59.94 C125.915,61.92 125.96,63.315 125.96,63.315 L126.05,63.315 C126.05,63.315 126.05,61.92 126.455,59.94 L130.865,39.825 L139.01,39.825 L130.865,72 L122.09,72 L118.04,55.755 C117.545,53.685 117.41,51.975 117.41,51.975 L117.32,51.975 C117.32,51.975 117.185,53.685 116.69,55.755 L112.64,72 L103.775,72 Z M144.1625,55.71 C144.1625,46.485 151.2725,39.285 160.9925,39.285 C170.7125,39.285 177.8225,46.485 177.8225,55.71 C177.8225,65.16 170.7125,72.54 160.9925,72.54 C151.2725,72.54 144.1625,65.16 144.1625,55.71 Z M152.3075,55.71 C152.3075,61.2 156.1775,65.34 160.9925,65.34 C165.8075,65.34 169.6775,61.2 169.6775,55.71 C169.6775,50.445 165.8075,46.485 160.9925,46.485 C156.1775,46.485 152.3075,50.445 152.3075,55.71 Z M185,72 L187.655,39.825 L196.205,39.825 L200.885,53.415 C201.605,55.485 202.505,58.725 202.505,58.725 L202.595,58.725 C202.595,58.725 203.495,55.485 204.215,53.415 L208.895,39.825 L217.445,39.825 L220.055,72 L212.18,72 L211.19,57.51 C211.01,55.08 211.19,52.11 211.19,52.11 L211.1,52.11 C211.1,52.11 210.02,55.485 209.3,57.51 L205.925,66.825 L199.175,66.825 L195.8,57.51 C195.08,55.485 194,52.11 194,52.11 L193.91,52.11 C193.91,52.11 194.09,55.08 193.91,57.51 L192.92,72 L185,72 Z M247.5275,72 L245.5475,65.25 L235.5125,65.25 L233.5775,72 L225.4775,72 L236.4125,39.825 L244.6925,39.825 L255.6275,72 L247.5275,72 Z M240.5975,47.16 L240.5075,47.16 C240.5075,47.16 239.7875,50.67 239.2025,52.695 L237.3575,58.95 L243.7025,58.95 L241.9025,52.695 C241.3175,50.67 240.5975,47.16 240.5975,47.16 Z M262.04,72 L262.04,39.825 L270.005,39.825 L278.915,54.855 C280.175,56.97 281.615,60.345 281.615,60.345 L281.705,60.345 C281.705,60.345 281.345,56.88 281.345,54.855 L281.345,39.825 L289.22,39.825 L289.22,72 L281.3,72 L272.345,57.015 C271.085,54.9 269.645,51.525 269.645,51.525 L269.555,51.525 C269.555,51.525 269.915,54.99 269.915,57.015 L269.915,72 L262.04,72 Z M297.3875,50.625 L299.8175,39.15 L306.6575,39.15 L302.6525,50.625 L297.3875,50.625 Z M311.36,67.95 L315.5,61.965 C315.5,61.965 319.145,65.295 323.195,65.295 C324.815,65.295 326.57,64.665 326.57,62.73 C326.57,58.905 312.08,59.04 312.08,49.14 C312.08,43.2 317.075,39.285 323.465,39.285 C330.395,39.285 333.815,42.93 333.815,42.93 L330.485,49.365 C330.485,49.365 327.245,46.53 323.375,46.53 C321.755,46.53 319.955,47.25 319.955,49.05 C319.955,53.1 334.445,52.38 334.445,62.55 C334.445,67.905 330.35,72.54 323.105,72.54 C315.545,72.54 311.36,67.95 311.36,67.95 Z M122.36,115.38 C122.36,115.38 122.359992,115.380008 122.359977,115.380025 L122.36,115.38 Z M122.36,115.38 L126.41,121.14 C126.41,121.14 121.865,126.54 113.45,126.54 C103.37,126.54 96.575,119.385 96.575,109.845 C96.575,100.485 103.775,93.285 113.45,93.285 C121.415,93.285 125.51,97.83 125.51,97.83 L121.865,103.77 C121.865,103.77 118.265,100.485 113.81,100.485 C107.645,100.485 104.72,105.03 104.72,109.665 C104.72,114.435 107.87,119.34 113.81,119.34 C118.663003,119.34 122.349372,115.391395 122.359977,115.380025 L122.36,115.38 Z M131.6075,109.71 C131.6075,100.485 138.7175,93.285 148.4375,93.285 C158.1575,93.285 165.2675,100.485 165.2675,109.71 C165.2675,119.16 158.1575,126.54 148.4375,126.54 C138.7175,126.54 131.6075,119.16 131.6075,109.71 Z M139.7525,109.71 C139.7525,115.2 143.6225,119.34 148.4375,119.34 C153.2525,119.34 157.1225,115.2 157.1225,109.71 C157.1225,104.445 153.2525,100.485 148.4375,100.485 C143.6225,100.485 139.7525,104.445 139.7525,109.71 Z M173.435,126 L173.435,93.825 L181.31,93.825 L181.31,119.25 L194.45,119.25 L194.45,126 L173.435,126 Z M201.5825,126 L201.5825,93.825 L209.4575,93.825 L209.4575,119.25 L222.5975,119.25 L222.5975,126 L201.5825,126 Z M229.73,126 L229.73,93.825 L249.89,93.825 L249.89,100.575 L237.605,100.575 L237.605,106.425 L247.415,106.425 L247.415,113.175 L237.605,113.175 L237.605,119.25 L250.52,119.25 L250.52,126 L229.73,126 Z M256.7975,109.845 C256.7975,100.485 263.9975,93.285 273.6725,93.285 C281.6375,93.285 285.7325,97.83 285.7325,97.83 L282.0875,103.77 C282.0875,103.77 278.4875,100.485 274.0325,100.485 C267.8675,100.485 264.9425,105.03 264.9425,109.665 C264.9425,114.435 268.0925,119.34 274.0325,119.34 C278.8925,119.34 282.5825,115.38 282.5825,115.38 L286.6325,121.14 C286.6325,121.14 282.0875,126.54 273.6725,126.54 C263.5925,126.54 256.7975,119.385 256.7975,109.845 Z M300.38,126 L300.38,100.575 L290.615,100.575 L290.615,93.825 L318.02,93.825 L318.02,100.575 L308.255,100.575 L308.255,126 L300.38,126 Z M324.7925,126 L324.7925,93.825 L332.6675,93.825 L332.6675,126 L324.7925,126 Z M340.835,109.71 C340.835,100.485 347.945,93.285 357.665,93.285 C367.385,93.285 374.495,100.485 374.495,109.71 C374.495,119.16 367.385,126.54 357.665,126.54 C347.945,126.54 340.835,119.16 340.835,109.71 Z M348.98,109.71 C348.98,115.2 352.85,119.34 357.665,119.34 C362.48,119.34 366.35,115.2 366.35,109.71 C366.35,104.445 362.48,100.485 357.665,100.485 C352.85,100.485 348.98,104.445 348.98,109.71 Z M382.6625,126 L382.6625,93.825 L390.6275,93.825 L399.5375,108.855 C400.7975,110.97 402.2375,114.345 402.2375,114.345 L402.3275,114.345 C402.3275,114.345 401.9675,110.88 401.9675,108.855 L401.9675,93.825 L409.8425,93.825 L409.8425,126 L401.9225,126 L392.9675,111.015 C391.7075,108.9 390.2675,105.525 390.2675,105.525 L390.1775,105.525 C390.1775,105.525 390.5375,108.99 390.5375,111.015 L390.5375,126 L382.6625,126 Z" id="Woman’s-Collection"></path>
                </g>
            </g>
        </g>
    </g>
</svg>