<?xml version="1.0" encoding="UTF-8"?>
<svg width="342px" height="96px" viewBox="0 0 342 96" version="1.1" xmlns="http://www.w3.org/2000/svg" xmlns:xlink="http://www.w3.org/1999/xlink">
    <!-- Generator: Sketch 49 (51002) - http://www.bohemiancoding.com/sketch -->
    <title>Woman’s Collection</title>
    <desc>Created with Sketch.</desc>
    <defs></defs>
    <g id="Suite" stroke="none" stroke-width="1" fill="none" fill-rule="evenodd">
        <g id="Womens-Collection-Desktop-3" transform="translate(-96.000000, -139.000000)" fill="#FFFFFF">
            <g id="HERO" transform="translate(0.000000, -1.000000)">
                <g id="Primary-Nav" transform="translate(0.000000, 104.000000)">
                    <path d="M104.555,72 L96.029,36.965 L105.045,36.965 L109.455,58.868 C109.896,61.024 109.896,62.543 109.896,62.543 L109.994,62.543 C109.994,62.543 110.043,61.024 110.582,58.868 L115.972,36.965 L122.881,36.965 L128.124,58.868 C128.663,61.024 128.712,62.543 128.712,62.543 L128.81,62.543 C128.81,62.543 128.81,61.024 129.251,58.868 L134.053,36.965 L142.922,36.965 L134.053,72 L124.498,72 L120.088,54.311 C119.549,52.057 119.402,50.195 119.402,50.195 L119.304,50.195 C119.304,50.195 119.157,52.057 118.618,54.311 L114.208,72 L104.555,72 Z M148.5325,54.262 C148.5325,44.217 156.2745,36.377 166.8585,36.377 C177.4425,36.377 185.1845,44.217 185.1845,54.262 C185.1845,64.552 177.4425,72.588 166.8585,72.588 C156.2745,72.588 148.5325,64.552 148.5325,54.262 Z M157.4015,54.262 C157.4015,60.24 161.6155,64.748 166.8585,64.748 C172.1015,64.748 176.3155,60.24 176.3155,54.262 C176.3155,48.529 172.1015,44.217 166.8585,44.217 C161.6155,44.217 157.4015,48.529 157.4015,54.262 Z M193,72 L195.891,36.965 L205.201,36.965 L210.297,51.763 C211.081,54.017 212.061,57.545 212.061,57.545 L212.159,57.545 C212.159,57.545 213.139,54.017 213.923,51.763 L219.019,36.965 L228.329,36.965 L231.171,72 L222.596,72 L221.518,56.222 C221.322,53.576 221.518,50.342 221.518,50.342 L221.42,50.342 C221.42,50.342 220.244,54.017 219.46,56.222 L215.785,66.365 L208.435,66.365 L204.76,56.222 C203.976,54.017 202.8,50.342 202.8,50.342 L202.702,50.342 C202.702,50.342 202.898,53.576 202.702,56.222 L201.624,72 L193,72 Z M261.0855,72 L258.9295,64.65 L248.0025,64.65 L245.8955,72 L237.0755,72 L248.9825,36.965 L257.9985,36.965 L269.9055,72 L261.0855,72 Z M253.5395,44.952 L253.4415,44.952 C253.4415,44.952 252.6575,48.774 252.0205,50.979 L250.0115,57.79 L256.9205,57.79 L254.9605,50.979 C254.3235,48.774 253.5395,44.952 253.5395,44.952 Z M276.888,72 L276.888,36.965 L285.561,36.965 L295.263,53.331 C296.635,55.634 298.203,59.309 298.203,59.309 L298.301,59.309 C298.301,59.309 297.909,55.536 297.909,53.331 L297.909,36.965 L306.484,36.965 L306.484,72 L297.86,72 L288.109,55.683 C286.737,53.38 285.169,49.705 285.169,49.705 L285.071,49.705 C285.071,49.705 285.463,53.478 285.463,55.683 L285.463,72 L276.888,72 Z M315.3775,48.725 L318.0235,36.23 L325.4715,36.23 L321.1105,48.725 L315.3775,48.725 Z M330.592,67.59 L335.1,61.073 C335.1,61.073 339.069,64.699 343.479,64.699 C345.243,64.699 347.154,64.013 347.154,61.906 C347.154,57.741 331.376,57.888 331.376,47.108 C331.376,40.64 336.815,36.377 343.773,36.377 C351.319,36.377 355.043,40.346 355.043,40.346 L351.417,47.353 C351.417,47.353 347.889,44.266 343.675,44.266 C341.911,44.266 339.951,45.05 339.951,47.01 C339.951,51.42 355.729,50.636 355.729,61.71 C355.729,67.541 351.27,72.588 343.381,72.588 C335.149,72.588 330.592,67.59 330.592,67.59 Z M96.715,113.409 C96.715,103.217 104.555,95.377 115.09,95.377 C123.763,95.377 128.222,100.326 128.222,100.326 L124.253,106.794 C124.253,106.794 120.333,103.217 115.482,103.217 C108.769,103.217 105.584,108.166 105.584,113.213 C105.584,118.407 109.014,123.748 115.482,123.748 C120.774,123.748 124.792,119.436 124.792,119.436 L129.202,125.708 C129.202,125.708 124.253,131.588 115.09,131.588 C104.114,131.588 96.715,123.797 96.715,113.409 Z M134.8615,113.262 C134.8615,103.217 142.6035,95.377 153.1875,95.377 C163.7715,95.377 171.5135,103.217 171.5135,113.262 C171.5135,123.552 163.7715,131.588 153.1875,131.588 C142.6035,131.588 134.8615,123.552 134.8615,113.262 Z M143.7305,113.262 C143.7305,119.24 147.9445,123.748 153.1875,123.748 C158.4305,123.748 162.6445,119.24 162.6445,113.262 C162.6445,107.529 158.4305,103.217 153.1875,103.217 C147.9445,103.217 143.7305,107.529 143.7305,113.262 Z M180.407,131 L180.407,95.965 L188.982,95.965 L188.982,123.65 L203.29,123.65 L203.29,131 L180.407,131 Z M211.0565,131 L211.0565,95.965 L219.6315,95.965 L219.6315,123.65 L233.9395,123.65 L233.9395,131 L211.0565,131 Z M241.706,131 L241.706,95.965 L263.658,95.965 L263.658,103.315 L250.281,103.315 L250.281,109.685 L260.963,109.685 L260.963,117.035 L250.281,117.035 L250.281,123.65 L264.344,123.65 L264.344,131 L241.706,131 Z M271.1795,113.409 C271.1795,103.217 279.0195,95.377 289.5545,95.377 C298.2275,95.377 302.6865,100.326 302.6865,100.326 L298.7175,106.794 C298.7175,106.794 294.7975,103.217 289.9465,103.217 C283.2335,103.217 280.0485,108.166 280.0485,113.213 C280.0485,118.407 283.4785,123.748 289.9465,123.748 C295.2385,123.748 299.2565,119.436 299.2565,119.436 L303.6665,125.708 C303.6665,125.708 298.7175,131.588 289.5545,131.588 C278.5785,131.588 271.1795,123.797 271.1795,113.409 Z M318.636,131 L318.636,103.315 L308.003,103.315 L308.003,95.965 L337.844,95.965 L337.844,103.315 L327.211,103.315 L327.211,131 L318.636,131 Z M345.2185,131 L345.2185,95.965 L353.7935,95.965 L353.7935,131 L345.2185,131 Z M362.687,113.262 C362.687,103.217 370.429,95.377 381.013,95.377 C391.597,95.377 399.339,103.217 399.339,113.262 C399.339,123.552 391.597,131.588 381.013,131.588 C370.429,131.588 362.687,123.552 362.687,113.262 Z M371.556,113.262 C371.556,119.24 375.77,123.748 381.013,123.748 C386.256,123.748 390.47,119.24 390.47,113.262 C390.47,107.529 386.256,103.217 381.013,103.217 C375.77,103.217 371.556,107.529 371.556,113.262 Z M408.2325,131 L408.2325,95.965 L416.9055,95.965 L426.6075,112.331 C427.9795,114.634 429.5475,118.309 429.5475,118.309 L429.6455,118.309 C429.6455,118.309 429.2535,114.536 429.2535,112.331 L429.2535,95.965 L437.8285,95.965 L437.8285,131 L429.2045,131 L419.4535,114.683 C418.0815,112.38 416.5135,108.705 416.5135,108.705 L416.4155,108.705 C416.4155,108.705 416.8075,112.478 416.8075,114.683 L416.8075,131 L408.2325,131 Z" id="Woman’s-Collection"></path>
                </g>
            </g>
        </g>
    </g>
</svg>