<?xml version="1.0" encoding="UTF-8"?>
<svg width="229px" height="29px" viewBox="0 0 229 29" version="1.1" xmlns="http://www.w3.org/2000/svg" xmlns:xlink="http://www.w3.org/1999/xlink">
    <!-- Generator: Sketch 49 (51002) - http://www.bohemiancoding.com/sketch -->
    <title>Logo</title>
    <desc>Created with Sketch.</desc>
    <defs></defs>
    <g id="Suite" stroke="none" stroke-width="1" fill="none" fill-rule="evenodd">
        <g id="Library-Home-Desktop" transform="translate(-40.000000, -18.000000)" fill="#FFFFFF">
            <g id="Hero-/-Header-2" transform="translate(0.000000, -2.000000)">
                <g id="Nav" transform="translate(0.000000, 2.000000)">
                    <g id="Logo" transform="translate(40.000000, 18.000000)">
                        <text id="University" font-family="Gotham-Medium, Gotham" font-size="10" font-weight="400" letter-spacing="3.89374995">
                            <tspan x="55.4526029" y="27.0257786">UNIVERSITY</tspan>
                        </text>
                        <path d="M6.95930166,0.253701226 C7.23656467,0.59181807 7.49222278,0.950819662 7.79469152,1.26445094 C8.76727256,2.27304017 10.0329602,2.43075601 11.3461787,2.47216542 C13.5887684,2.54310154 15.8547634,2.46244321 18.0671062,2.76671236 C21.7514635,3.27298743 24.0822732,5.81516519 24.4052667,9.51680648 C24.5770257,11.4832134 24.4668406,13.4730256 24.5413776,15.450235 C24.6184351,17.4803764 24.543178,19.5472461 25.4703887,21.4437972 C26.7839673,24.131448 28.8695613,24.4976512 31.3253194,23.6748642 C32.5679618,23.2586096 33.2838045,22.2003291 33.6860159,20.9980158 C34.3881755,18.8990988 34.9725883,16.7605728 35.6909516,14.6674171 C36.6628125,11.8350133 38.4995899,9.79731023 41.4504606,8.97020225 C42.6264878,8.64036729 43.8543669,8.489493 45.0628015,8.2831661 C46.252872,8.08007995 47.115268,7.24324976 47.3057513,5.97576169 C44.5291603,5.95415678 41.7975794,6.03265462 39.2370375,7.27349663 C35.4705815,9.09875146 33.6132794,12.3211238 32.6648238,16.2186496 C32.3677563,17.4386069 32.1012957,18.6718872 31.7023251,19.8594371 C31.2482619,21.2111843 30.3005265,21.8366464 29.1435835,21.6382413 C27.8130812,21.4095894 27.2916827,20.3145805 27.2243474,19.2199317 C27.0241419,15.9662323 26.9215185,12.7010102 26.9514053,9.44190945 C26.9647283,7.99654096 27.9614349,7.11578079 29.3873589,6.84139843 C30.1482119,6.69484512 30.9252685,6.61454687 31.6990843,6.55549345 C33.2895658,6.43414587 34.5462514,5.78419816 35.5548406,4.177513 C32.1452257,4.31110336 28.8076272,3.52756529 26.0803674,6.1262759 C25.9255322,5.862696 25.8167875,5.68517565 25.7159645,5.50369441 C25.1754817,4.53399402 25.1437945,4.29597993 26.1826306,3.85668008 C27.5412194,3.28162939 28.9790261,2.76095106 30.4294358,2.57046776 C32.1711516,2.3418158 33.9618386,2.49413041 35.7312807,2.46496379 C37.5334903,2.43543707 39.0433135,1.87010859 39.991409,0.0426932693 C39.6212448,0.0426932693 39.3612657,0.0426932693 39.1012867,0.0426932693 C36.4316399,0.0426932693 33.7547915,-0.0703724274 31.0941469,0.0859030898 C29.5375131,0.177003794 27.9715172,0.588217252 26.4757372,1.06280511 C25.4199773,1.39768122 24.4744024,2.08111655 23.636852,2.52509745 C22.3549607,1.90719702 21.1994581,1.16470827 19.9352107,0.774739644 C15.7200927,-0.525155787 11.3681437,0.265223844 7.08100932,0.00596492199 C7.04068015,0.0884236626 6.99999091,0.171242485 6.95930166,0.253701226 M11.4984933,4.26033182 C13.6272971,4.26033182 15.6304324,4.0129556 17.5464278,4.31506426 C20.9149934,4.84582489 22.6534685,7.1334248 22.7200837,10.6420622 C22.761133,12.801473 22.6923574,14.9630443 22.7395281,17.122455 C22.7881391,19.3430797 23.2983751,21.430114 24.5705442,23.3194634 C26.725634,26.5195107 33.224391,26.7081936 34.9596254,22.3306787 C35.7723301,20.2796526 36.2926483,18.1134002 36.9670816,16.0062013 C37.7146115,13.6707105 38.8510298,11.6160836 41.3481973,10.7810538 C42.3495849,10.4461777 43.4319909,10.3536367 44.6285429,10.1213839 C44.4747879,11.4490056 43.8161982,12.2015767 42.8875472,12.5386133 C40.4076636,13.4388178 39.4159982,15.3893812 38.860752,17.7479172 C38.36816,19.8396326 38.0102387,21.9669961 36.8723801,23.867508 C34.2614267,28.228099 28.4367429,29.4268115 24.3735794,26.3751179 C23.9169957,26.03232 23.570957,25.9109724 23.0416367,26.2969802 C18.1898941,29.8315435 11.2403146,27.985764 9.24546124,21.3123673 C8.72370266,19.5663305 8.34993771,17.7760036 7.82457831,16.031047 C7.34963037,14.4524482 6.29891157,13.3556389 4.74515845,12.7359381 C3.67463514,12.308881 2.8666115,11.604561 2.58934849,10.408009 C5.48764719,9.86284512 8.5663469,11.6110424 9.68296067,14.5781168 C10.4816222,16.7015194 11.0257058,18.9192634 11.7462296,21.0739931 C12.4545106,23.1934348 13.6874308,24.8847392 15.9825924,25.4633907 C17.8978677,25.9462604 19.7720937,25.953102 21.4695194,24.6791325 C22.0596936,24.2362318 22.2177695,23.8098949 21.7943133,23.1833525 C21.5987888,22.8938467 21.4576367,22.5676126 21.2372667,22.156039 C20.8847465,22.5269233 20.6186461,22.8762027 20.2870107,23.1451838 C18.0908716,24.9257885 14.7903614,24.0277444 13.6935522,21.2475526 C13.015158,19.5285219 12.601784,17.7054275 12.0631016,15.9313043 C11.3731848,13.6577476 10.4027643,11.5566701 8.38414549,10.1285855 C6.74469288,8.969122 4.85570357,8.53378306 2.90586042,8.30297061 C1.26208684,8.10852641 0.315071607,7.39268372 0,5.96747981 C2.3869825,5.95451687 4.71851239,6.06542207 6.97802591,6.85652187 C11.1376913,8.31341298 13.3125856,11.4734912 14.4400018,15.533774 C14.8476145,17.0018276 15.162326,18.5015685 15.6660805,19.9350543 C16.139228,21.2817603 17.0268297,21.7963173 18.1733303,21.6616467 C19.2240491,21.5384987 19.8361882,20.8856703 20.1019286,19.5018758 C20.2427206,18.7691093 20.3554262,18.019779 20.367669,17.2758499 C20.402957,15.1459658 20.4151998,13.0146414 20.3716299,10.8854775 C20.3107761,7.92344435 18.9168993,6.57133705 15.9714299,6.51192355 C14.630125,6.48455733 13.3262687,6.31279829 12.3216404,5.29052596 C12.0411366,5.00534114 11.8178859,4.66398356 11.4984933,4.26033182" id="Page-1"></path>
                        <path d="M216.155794,4.45903742 C216.453942,4.1461263 216.758211,3.89334885 216.980022,3.58187806 C217.580278,2.7385664 217.930998,1.7811088 217.424003,0.816449557 C217.224877,0.437283383 216.594014,0.0674793362 216.177759,0.0865636736 C215.824879,0.102767356 215.352092,0.628126756 215.194736,1.03069825 C214.974366,1.592786 215.321485,2.05909198 215.905898,2.28558345 C216.026165,2.33203401 216.141751,2.38928702 216.352759,2.4829083 C215.975393,2.94885419 215.663923,3.3334216 215.304201,3.77776258 C215.580384,3.99885283 215.849725,4.21418177 216.155794,4.45903742 Z M59.5954524,2.34355663 L59.5954524,13.2324314 L62.0526509,13.2324314 L62.0526509,2.22544978 C63.0597998,2.22544978 64.0028541,2.33707515 64.9066595,2.19664324 C65.9717816,2.03136567 66.4762562,1.22910334 66.3682317,0.184505933 C63.2560444,0.184505933 60.1384558,0.156059468 57.0215875,0.19962937 C55.875807,0.215472971 55.1826495,1.00405219 55.0926291,2.34355663 L59.5954524,2.34355663 Z M223.409283,0.179104706 C221.968595,0.444845101 220.860264,1.22514244 220.352548,2.65646774 C219.917569,3.88218632 220.082847,5.07765801 221.033463,5.97678236 C221.645242,6.55579395 222.455786,6.93279964 223.199715,7.36129702 C223.997657,7.82112153 224.903622,8.13187215 225.615144,8.6939599 C226.625534,9.49226133 226.305061,10.8137617 225.032892,11.0236894 C224.254035,11.1518785 223.359231,11.0049651 222.601619,10.7392247 C221.194419,10.2455525 220.715511,10.3262109 219.899565,11.6135034 C221.106559,12.8114957 222.590817,13.3483777 224.263037,13.4034702 C226.489783,13.4769269 228.035974,12.3520313 228.535768,10.3319722 C228.959224,8.61942296 228.064421,7.11356072 226.069928,6.17086647 C225.125073,5.72400491 224.14313,5.3336762 223.262369,4.78311107 C222.905528,4.56022041 222.524562,3.92323564 222.600899,3.57179577 C222.702442,3.10404947 223.170909,2.51171484 223.608048,2.3738035 C224.138088,2.20672553 224.860413,2.32051139 225.393694,2.5542045 C226.932684,3.22755754 227.26864,3.18506788 228.264626,1.7613043 C226.820338,0.361306115 225.28963,-0.168374267 223.409283,0.179104706 Z M116.406284,13.4034702 C118.627629,13.4798076 120.179582,12.350591 120.677575,10.3337726 C121.103552,8.60646001 120.225312,7.11716154 118.218216,6.17374712 C117.352579,5.76685465 116.468938,5.39633044 115.619865,4.95775076 C114.971718,4.62287465 114.483807,4.14324565 114.757469,3.30245456 C114.997644,2.56500696 115.777581,2.09438 116.614771,2.2290506 C116.96153,2.28486329 117.307569,2.41701332 117.624801,2.57436908 C119.047844,3.28012948 119.562041,3.12961528 120.387709,1.7076521 C119.02948,0.402715526 117.425316,-0.177016231 115.556491,0.176584133 C114.116163,0.449166083 113.009632,1.22550252 112.497596,2.65394717 C112.057576,3.88146615 112.232215,5.07621769 113.17707,5.97678236 C113.785968,6.55759436 114.599393,6.93171939 115.343322,7.36021678 C116.141624,7.8196812 117.04723,8.13115199 117.758751,8.69287965 C118.770221,9.49154117 118.452629,10.8134016 117.18298,11.0236894 C116.404123,11.1525987 115.50932,11.0060454 114.751348,10.7406651 C113.337667,10.2455525 112.861638,10.3247705 112.047853,11.6113429 C113.250167,12.8161768 114.735864,13.3462172 116.406284,13.4034702 Z M77.2531455,5.56376849 L73.013542,5.56376849 L73.013542,2.29818632 C73.5889528,2.29818632 74.0952278,2.29818632 74.6015029,2.29782623 C75.1409055,2.29746615 75.6810282,2.31511016 76.2193506,2.29206492 C77.5286081,2.23661232 78.3315906,1.42282737 78.2664158,0.241038782 C75.675627,0.2406787 73.0851983,0.2406787 70.5412201,0.2406787 L70.5412201,13.2392729 L78.6164154,13.2392729 C78.5861685,11.9735853 77.8065913,11.1968887 76.507056,11.1662818 C75.350113,11.1392757 74.1924499,11.1605205 73.0265049,11.1605205 L73.0265049,7.71813812 L77.2531455,7.71813812 L77.2531455,5.56376849 Z M90.5610501,8.2398967 C89.7879544,7.16577258 89.6907323,6.3130988 90.5246818,5.2522977 C91.1490637,4.45831725 91.5952051,3.52390489 92.1166036,2.64926611 C92.5854301,1.86284737 93.0488555,1.07282782 93.5158816,0.281367947 C91.6762235,-0.143888702 90.4036943,0.338260877 89.6874915,2.10554253 C89.3043644,3.05075735 88.7163508,3.91315335 88.1769482,4.89221587 C87.467587,3.58979986 86.8799334,2.37308334 86.1540085,1.24458686 C85.8630623,0.792324074 85.3150178,0.386871925 84.801181,0.228435917 C84.2358525,0.0541563083 83.5751023,0.188826915 82.843056,0.188826915 C83.0519034,0.565832598 83.1980967,0.849577086 83.3626541,1.1228792 C84.3514388,2.76449229 85.3265404,4.41510743 86.3477325,6.03619586 C86.6458802,6.5093434 86.6462403,6.86006311 86.3491728,7.33105015 C85.2952133,9.00291012 84.2826632,10.700696 83.2585904,12.3912802 C83.1015947,12.650179 82.966564,12.9224009 82.7710396,13.2806823 C83.4533947,13.2806823 83.9679516,13.2335116 84.4702658,13.2918449 C85.1900694,13.3750238 85.5944413,13.1056826 85.9278771,12.4550147 C86.6145531,11.1147901 87.3980912,9.8238967 88.1902712,8.42677918 C88.9734492,9.78644819 89.7141376,11.0445741 90.4263794,12.3189038 C90.8156279,13.015302 91.3607918,13.3789847 92.1720562,13.3393757 C92.6181976,13.3177708 93.0664995,13.3354148 93.7621776,13.3354148 C92.6282799,11.5083595 91.6881062,9.80697286 90.5610501,8.2398967 Z M101.227034,7.89061732 C101.752754,6.23424087 102.259389,4.63799809 102.829758,2.84010948 C103.392926,4.61171212 103.897041,6.19679236 104.435723,7.89061732 L101.227034,7.89061732 Z M108.407786,12.469778 C107.124454,8.89272507 105.841483,5.31603219 104.55347,1.74077963 C104.452287,1.4599158 104.342102,1.17617131 104.189427,0.921593453 C103.656866,0.0321913162 102.764584,0.191347488 101.934955,0.178384542 C101.211551,0.166861923 101.311293,0.807087429 101.170501,1.20533794 C99.8652046,4.90121791 98.5840335,8.60609993 97.2996216,12.3091815 C97.1969982,12.6044486 97.1206609,12.9083577 97.0266795,13.2259499 C99.4770364,13.4805278 99.4763163,13.4801677 100.148589,11.3225573 C100.228527,11.065819 100.354556,10.8173625 100.394885,10.5548628 C100.477344,10.0208615 100.790615,9.89267233 101.282127,9.90959618 C102.091231,9.93732248 102.912577,9.99889648 103.709438,9.89663323 C104.776361,9.75944206 105.225383,10.1911802 105.524251,11.1868065 C106.199044,13.4355175 106.250536,13.4203941 108.655883,13.2259499 C108.55578,12.9195203 108.487364,12.6926687 108.407786,12.469778 Z M189.614162,7.8909774 C190.13232,6.23856185 190.631753,4.64664005 191.199963,2.83506833 C191.774653,4.61855367 192.284889,6.20219359 192.829333,7.8909774 L189.614162,7.8909774 Z M186.512417,13.2976062 C188.02188,13.2990465 188.02296,13.2994066 188.465141,11.9166923 C188.601612,11.4896353 188.753567,11.065819 188.85871,10.6312002 C188.981138,10.1267255 189.221313,9.88114972 189.789522,9.90491512 C190.83664,9.94848502 191.889519,9.87574849 192.933757,9.94452412 C193.221822,9.96360846 193.616472,10.2531143 193.74034,10.5210151 C194.063693,11.2224546 194.238693,11.9908692 194.529639,12.7095925 C194.62146,12.9364441 194.878559,13.2302709 195.085246,13.2518758 C195.749957,13.3213716 196.42619,13.2778017 197.121508,13.2778017 C197.099183,13.0714748 197.106745,12.9785737 197.077938,12.8989956 C195.704226,9.07384624 194.327993,5.24941705 192.94852,1.42642819 C192.887666,1.25826997 192.805207,1.09623314 192.715907,0.941037872 C192.171103,-0.00849793135 191.23093,0.107088338 190.39842,0.225915344 C190.096672,0.269125165 189.772958,0.820410457 189.630006,1.20389761 C189.014266,2.85487283 188.4619,4.52997354 187.885769,6.1960722 C187.077746,8.53480373 186.269002,10.8735353 185.431091,13.2976959 C185.859949,13.2976062 186.186183,13.2972461 186.512417,13.2976062 Z M153.387409,6.61052639 C153.385248,4.26135249 155.266676,2.31330975 157.549235,2.30142705 C159.926495,2.28882419 161.769034,4.21418177 161.776595,6.71963119 C161.784517,9.26396945 159.957102,11.15836 157.479739,11.1752838 C155.201501,11.1904073 153.389929,9.16962801 153.387409,6.61052639 Z M157.675623,0.00194444192 C153.982624,-0.0869957718 150.915807,2.94021223 150.912206,6.67750161 C150.908605,10.4043486 153.815546,13.4582027 157.511426,13.4383982 C161.53174,13.4171534 164.246757,10.2462727 164.208948,6.79704878 C164.26296,3.04751662 161.421195,0.0919649011 157.675623,0.00194444192 Z M204.625614,1.6363559 C203.822271,0.336100386 202.794238,-0.0531480791 201.365433,0.256522301 L201.365433,13.2356721 L203.682199,13.2356721 L203.682199,4.27215494 C203.802467,4.37333794 203.884205,4.41546752 203.927415,4.48208266 C205.662289,7.1772952 207.386721,9.87862914 209.135639,12.5644796 C209.312799,12.8370615 209.611667,13.164736 209.893611,13.2075857 C210.529156,13.3040877 211.189546,13.2378326 211.840214,13.2378326 C211.881263,13.0113411 211.920152,12.896475 211.920152,12.7812488 C211.916551,9.151984 211.925193,5.52271916 211.893866,1.89381441 C211.882703,0.591758491 211.055235,0.0372324619 209.57962,0.287489338 L209.57962,9.19843455 C207.861669,6.59180214 206.180087,4.15332794 204.625614,1.6363559 Z M172.194123,7.4192702 C172.590573,8.35584306 172.984503,9.29421632 173.402918,10.2214271 C173.518864,10.4781654 173.666498,10.8155621 173.888668,10.9135043 C174.840364,11.3315594 175.854355,10.8576917 176.260527,9.873588 C176.500342,9.29313608 176.742317,8.71340432 176.980331,8.13187215 C177.448077,6.98861232 177.913663,5.84463233 178.457026,4.51160937 C178.69072,7.56618359 178.907849,10.4043486 179.124258,13.2345919 L181.528524,13.2345919 C181.169523,8.86499877 180.815202,4.55121837 180.462682,0.256162219 C178.282027,-0.00597735849 177.85785,0.239598454 177.114641,2.14515153 C176.334344,4.14540614 175.558008,6.14782123 174.745303,8.23809629 C173.903071,6.1146937 173.100089,4.08887329 172.295666,2.06341296 C171.576943,0.254721891 171.026018,-0.0437859514 168.919539,0.278127211 C168.592224,4.57390352 168.26347,8.88480327 167.932194,13.2281104 L170.367068,13.2281104 C170.559351,10.3557376 170.748755,7.52945524 170.954721,4.45435635 C171.43435,5.60265733 171.810276,6.51258413 172.194123,7.4192702 Z M134.685478,13.2806823 C133.572465,8.89272507 132.479617,4.58362573 131.384608,0.265884428 C133.325809,-0.0434258695 133.9023,0.33682055 134.303792,2.08465779 C134.839953,4.41654776 135.382597,6.74663733 135.928841,9.07600673 C135.981773,9.30069779 136.079715,9.51494649 136.208625,9.88259004 C137.054817,6.57199764 137.86032,3.41876099 138.676625,0.224475017 L140.779143,0.224475017 C141.610212,3.36690921 142.441641,6.51114381 143.27343,9.6553784 C143.328163,9.65717881 143.383255,9.65897922 143.437988,9.66077963 C143.939221,7.51289148 144.440455,5.3653634 144.940969,3.21783533 C145.008665,2.92652912 145.070239,2.63378259 145.135413,2.34175622 C145.541586,0.523342942 146.139682,0.0854834281 148.134175,0.228435917 C147.037726,4.56958254 145.945958,8.89380532 144.834385,13.2954457 C144.387883,13.2954457 143.973789,13.309849 143.561136,13.292565 C142.534182,13.2500754 141.958051,12.83022 141.684029,11.8147892 C141.067929,9.53475099 140.491798,7.24427043 139.897663,4.95847093 C139.871377,4.85728793 139.827807,4.76042591 139.70718,4.42410948 C139.257437,6.17050639 138.866028,7.68645092 138.47678,9.20311562 C138.290978,9.92724019 138.109136,10.652445 137.925495,11.3769297 C137.521123,12.9724523 137.121792,13.2853634 135.498183,13.2806823 C135.259809,13.2799622 135.021435,13.2806823 134.685478,13.2806823 Z" id="Fill-1"></path>
                    </g>
                </g>
            </g>
        </g>
    </g>
</svg>