<?xml version="1.0" encoding="UTF-8"?>
<svg width="102px" height="10px" viewBox="0 0 102 10" version="1.1" xmlns="http://www.w3.org/2000/svg" xmlns:xlink="http://www.w3.org/1999/xlink">
    <!-- Generator: Sketch 49 (51002) - http://www.bohemiancoding.com/sketch -->
    <title>Libraries</title>
    <desc>Created with Sketch.</desc>
    <defs></defs>
    <g id="Suite" stroke="none" stroke-width="1" fill="none" fill-rule="evenodd">
        <g id="Womens-Collection-Desktop-3" transform="translate(-325.000000, -27.000000)" fill="#0050AF">
            <g id="HERO" transform="translate(0.000000, -1.000000)">
                <g id="Group-6">
                    <path d="M325.08,37 L325.08,28.6 L326.556,28.6 L326.556,35.656 L330.972,35.656 L330.972,37 L325.08,37 Z M337.2645,28.6 L338.7405,28.6 L338.7405,37 L337.2645,37 L337.2645,28.6 Z M349.424999,28.6 C351.116999,28.6 352.184999,29.428 352.184999,30.748 C352.184999,31.78 351.608999,32.308 350.984999,32.632 C351.968999,32.968 352.652999,33.532 352.652999,34.684 C352.652999,36.196 351.416999,37 349.544999,37 L345.656999,37 L345.656999,28.6 L349.424999,28.6 Z M349.124999,32.14 C350.072999,32.14 350.708999,31.768 350.708999,30.988 C350.708999,30.304 350.180999,29.908 349.232999,29.908 L347.108999,29.908 L347.108999,32.14 L349.124999,32.14 Z M349.556999,35.692 C350.564999,35.692 351.176999,35.296 351.176999,34.528 C351.176999,33.808 350.612999,33.388 349.448999,33.388 L347.108999,33.388 L347.108999,35.692 L349.556999,35.692 Z M366.121499,37 L364.381499,37 L362.317499,34.072 L360.469499,34.072 L360.469499,37 L358.993499,37 L358.993499,28.6 L362.737499,28.6 C364.669499,28.6 365.857499,29.62 365.857499,31.264 C365.857499,32.656 365.029499,33.496 363.853499,33.82 L366.121499,37 Z M364.357499,31.348 C364.357499,30.424 363.709499,29.944 362.617499,29.944 L360.469499,29.944 L360.469499,32.764 L362.629499,32.764 C363.685499,32.764 364.357499,32.212 364.357499,31.348 Z M376.685999,28.54 L380.381999,37 L378.821999,37 L377.969999,34.972 L373.997999,34.972 L373.133999,37 L371.621999,37 L375.317999,28.54 L376.685999,28.54 Z M377.429999,33.664 L375.977999,30.304 L374.537999,33.664 L377.429999,33.664 Z M393.622498,37 L391.882498,37 L389.818498,34.072 L387.970498,34.072 L387.970498,37 L386.494498,37 L386.494498,28.6 L390.238498,28.6 C392.170498,28.6 393.358498,29.62 393.358498,31.264 C393.358498,32.656 392.530498,33.496 391.354498,33.82 L393.622498,37 Z M391.858498,31.348 C391.858498,30.424 391.210498,29.944 390.118498,29.944 L387.970498,29.944 L387.970498,32.764 L390.130498,32.764 C391.186498,32.764 391.858498,32.212 391.858498,31.348 Z M399.926998,28.6 L401.402998,28.6 L401.402998,37 L399.926998,37 L399.926998,28.6 Z M414.547498,28.6 L414.547498,29.92 L409.795498,29.92 L409.795498,32.104 L414.007498,32.104 L414.007498,33.424 L409.795498,33.424 L409.795498,35.68 L414.607498,35.68 L414.607498,37 L408.319498,37 L408.319498,28.6 L414.547498,28.6 Z M422.279997,30.796 C422.279997,31.456 422.663997,31.744 424.271997,32.128 C426.047997,32.56 426.971997,33.196 426.971997,34.6 C426.971997,36.184 425.735997,37.12 423.971997,37.12 C422.687997,37.12 421.475997,36.676 420.467997,35.776 L421.355997,34.72 C422.159997,35.416 422.963997,35.812 424.007997,35.812 C424.919997,35.812 425.495997,35.392 425.495997,34.744 C425.495997,34.132 425.159997,33.808 423.599997,33.448 C421.811997,33.016 420.803997,32.488 420.803997,30.928 C420.803997,29.464 422.003997,28.48 423.671997,28.48 C424.895997,28.48 425.867997,28.852 426.719997,29.536 L425.927997,30.652 C425.171997,30.088 424.415997,29.788 423.647997,29.788 C422.783997,29.788 422.279997,30.232 422.279997,30.796 Z" id="Libraries"></path>
                </g>
            </g>
        </g>
    </g>
</svg>